<svg width="40" height="40" viewBox="0 0 40 40" fill="none" xmlns="http://www.w3.org/2000/svg">
<path d="M17.4836 3.71685L9.16692 6.8335C7.25025 7.55017 5.68359 9.81682 5.68359 11.8668V24.2501C5.68359 26.2168 6.98361 28.8001 8.56695 29.9835L15.7336 35.3335C18.0836 37.1002 21.9502 37.1002 24.3002 35.3335L31.4669 29.9835C33.0503 28.8001 34.3502 26.2168 34.3502 24.2501V11.8668C34.3502 9.81682 32.7836 7.55017 30.8669 6.8335L22.5503 3.71685C21.1336 3.20018 18.8669 3.20018 17.4836 3.71685Z" stroke="#008EC4" stroke-width="2.5" stroke-linecap="round" stroke-linejoin="round"/>
<path d="M20.0001 18.2C19.9335 18.2 19.8501 18.2 19.7835 18.2C18.2168 18.15 16.9668 16.8499 16.9668 15.2666C16.9668 13.6499 18.2835 12.3333 19.9001 12.3333C21.5168 12.3333 22.8335 13.6499 22.8335 15.2666C22.8168 16.8666 21.5668 18.15 20.0001 18.2Z" stroke="#008EC4" stroke-width="2.5" stroke-linecap="round" stroke-linejoin="round"/>
<path d="M16.6824 22.8664C15.0824 23.933 15.0824 25.683 16.6824 26.7497C18.4991 27.9663 21.4824 27.9663 23.2991 26.7497C24.8991 25.683 24.8991 23.933 23.2991 22.8664C21.4991 21.6497 18.5158 21.6497 16.6824 22.8664Z" stroke="#008EC4" stroke-width="2.5" stroke-linecap="round" stroke-linejoin="round"/>
</svg>
