<svg width="200" height="33" viewBox="0 0 200 33" fill="none" xmlns="http://www.w3.org/2000/svg">
<path d="M32 16.0264C32 7.18974 24.8366 0.0263672 16 0.0263672C7.16337 0.0263672 0 7.18974 0 16.0264C0 24.0128 5.85189 30.6335 13.5037 31.8364V20.6482H9.44262V16.0264H13.5037V12.499C13.5037 8.49217 15.8915 6.27623 19.5455 6.27623C21.3002 6.27623 23.1272 6.59279 23.1272 6.59279V10.5272H21.1102C19.1204 10.5272 18.5054 11.7573 18.5054 13.0235V16.0264H22.9463L22.2408 20.6482H18.5144V31.8274C26.1481 30.6335 32 24.0128 32 16.0264Z" fill="#F2F2F2"/>
<path d="M22.2318 20.6483L22.9373 16.0265H18.4963V13.0237C18.4963 11.7574 19.1204 10.5274 21.1012 10.5274H23.1182V6.59293C23.1182 6.59293 21.2911 6.27637 19.5365 6.27637C15.8824 6.27637 13.4946 8.49231 13.4946 12.4991V16.0265H9.43359V20.6483H13.4946V31.8275C14.3087 31.9541 15.1408 32.0265 15.991 32.0265C16.8412 32.0265 17.6733 31.9632 18.4873 31.8275V20.6483H22.2318Z" fill="black"/>
<path d="M72 32.0264C80.8366 32.0264 88 24.8629 88 16.0264C88 7.18981 80.8366 0.0263672 72 0.0263672C63.1634 0.0263672 56 7.18981 56 16.0264C56 24.8629 63.1634 32.0264 72 32.0264Z" fill="#F2F2F2"/>
<path d="M80.8467 10.5451C80.2949 10.7983 79.6799 10.9521 79.083 11.0516C79.3633 11.0064 79.7794 10.4908 79.9512 10.2828C80.2045 9.96622 80.4216 9.60443 80.5391 9.21551C80.5572 9.18838 80.5663 9.14315 80.5391 9.12507C80.503 9.10698 80.4758 9.11602 80.4487 9.13411C79.7794 9.4959 79.092 9.74915 78.3594 9.93909C78.2961 9.95718 78.2508 9.93909 78.2147 9.90291C78.1514 9.83055 78.0971 9.76724 78.0338 9.71297C77.7263 9.45067 77.3916 9.24265 77.0208 9.08889C76.5324 8.8899 75.9987 8.8085 75.4651 8.83564C74.9495 8.87182 74.443 9.01653 73.9908 9.25169C73.5295 9.48685 73.1225 9.8215 72.7969 10.2195C72.4623 10.6355 72.209 11.1239 72.0824 11.6395C71.9558 12.1369 71.9738 12.6344 72.0462 13.1409C72.0552 13.2223 72.0462 13.2404 71.9738 13.2223C69.0976 12.7972 66.7189 11.7661 64.7833 9.55921C64.7019 9.45971 64.6567 9.45972 64.5844 9.56825C63.7342 10.8345 64.1502 12.8786 65.2084 13.8735C65.3532 14.0092 65.4979 14.1449 65.6516 14.2624C65.5974 14.2715 64.8919 14.1991 64.2678 13.8735C64.1864 13.8192 64.1412 13.8464 64.1321 13.9459C64.1231 14.0815 64.1321 14.2082 64.1593 14.3619C64.3221 15.6463 65.2084 16.8402 66.4295 17.3014C66.5742 17.3647 66.737 17.419 66.8907 17.4461C66.6104 17.5095 66.33 17.5547 65.534 17.4914C65.4346 17.4733 65.3984 17.5185 65.4346 17.618C66.0315 19.246 67.3249 19.7344 68.2927 20.0148C68.4193 20.0329 68.555 20.0329 68.6816 20.0691C68.6725 20.0782 68.6635 20.0782 68.6545 20.0962C68.3288 20.5847 67.2164 20.9464 66.7008 21.1273C65.7602 21.4529 64.7291 21.6067 63.7342 21.5072C63.5714 21.4801 63.5442 21.4891 63.499 21.5072C63.4538 21.5343 63.49 21.5705 63.5442 21.6157C63.7432 21.7514 63.9512 21.869 64.1593 21.9775C64.7924 22.3122 65.4526 22.5835 66.14 22.7735C69.7036 23.7593 73.7195 23.0358 76.3876 20.3766C78.486 18.2873 79.2277 15.4111 79.2277 12.5259C79.2277 12.4173 79.3633 12.354 79.4357 12.2907C79.9784 11.8837 80.4216 11.3862 80.8286 10.8436C80.919 10.7169 80.919 10.6084 80.919 10.5632C80.919 10.5541 80.919 10.5451 80.919 10.5451C80.91 10.4999 80.91 10.5179 80.8467 10.5451Z" fill="black"/>
<path d="M128 32.0264C136.837 32.0264 144 24.8629 144 16.0264C144 7.18981 136.837 0.0263672 128 0.0263672C119.163 0.0263672 112 7.18981 112 16.0264C112 24.8629 119.163 32.0264 128 32.0264Z" fill="#F2F2F2"/>
<path d="M136.311 14.1812C136.149 14.1992 135.986 14.2083 135.823 14.2083C134.023 14.2083 132.341 13.3038 131.346 11.7934V20.024C131.346 23.3886 128.624 26.1111 125.259 26.1111C121.894 26.1111 119.172 23.3886 119.172 20.024C119.172 16.6594 121.894 13.937 125.259 13.937C125.386 13.937 125.512 13.946 125.639 13.955V16.9579C125.512 16.9398 125.395 16.9217 125.259 16.9217C123.54 16.9217 122.157 18.3146 122.157 20.024C122.157 21.7425 123.549 23.1263 125.259 23.1263C126.977 23.1263 128.488 21.7787 128.488 20.0602L128.515 6.07715H131.382C131.654 8.64583 133.725 10.6628 136.302 10.8437L136.311 14.1812Z" fill="black"/>
<path d="M184 32.0264C192.837 32.0264 200 24.8629 200 16.0264C200 7.18981 192.837 0.0263672 184 0.0263672C175.163 0.0263672 168 7.18981 168 16.0264C168 24.8629 175.163 32.0264 184 32.0264Z" fill="#F2F2F2"/>
<path d="M192.565 13.738C192.565 11.6125 190.847 9.89404 188.721 9.89404H178.899C176.773 9.89404 175.055 11.6125 175.055 13.738V18.3146C175.055 20.4401 176.773 22.1586 178.899 22.1586H188.721C190.847 22.1586 192.565 20.4401 192.565 18.3146V13.738ZM186.786 16.37L182.381 18.5498C182.209 18.6402 181.621 18.5136 181.621 18.3237V13.8466C181.621 13.6476 182.209 13.5209 182.39 13.6204L186.605 15.9178C186.786 16.0173 186.967 16.2705 186.786 16.37Z" fill="black"/>
</svg>
